<svg width="125" height="24" viewBox="0 0 125 24" fill="none" xmlns="http://www.w3.org/2000/svg">
<path d="M6.74593 13.3713C6.74593 13.3713 6.58532 13.1998 6.58532 13.0284C6.58532 12.857 6.58532 12.6855 6.4247 12.5141L6.26408 11.657L6.10347 11.4855C6.10347 11.3141 6.10347 11.3141 6.10347 10.9713C6.10347 10.7998 5.94285 10.457 5.94285 10.2855C5.94285 10.1141 5.78223 9.94269 5.78223 9.59983C5.78223 9.4284 5.62161 9.25698 5.62161 9.25698C5.62161 9.25698 5.62161 9.08554 5.461 8.74269C5.30038 8.39983 5.30038 8.2284 5.30038 7.88555C5.30038 7.54269 5.13976 7.19983 5.13976 7.0284C5.13976 6.68555 4.97914 6.51412 4.97914 6.51412L4.81852 7.71412V7.88555C4.81852 7.88555 4.81852 7.88555 4.81852 8.05697V8.74269L4.65791 9.4284L4.49729 9.59983C4.49729 9.59983 4.49729 9.77126 4.49729 9.94269C4.49729 10.1141 4.49729 10.1141 4.49729 10.2855V10.6284C4.49729 10.7998 4.49729 10.7998 4.49729 10.9713C4.49729 11.1427 4.49729 11.1427 4.49729 11.3141L4.33667 11.657V12.3427C4.33667 12.5141 4.33667 12.5141 4.33667 12.6855V12.857L4.17606 13.7141H4.01544L3.85482 13.8855V14.057V14.2284L4.17606 14.057V14.2284V14.7427L4.33667 14.9141L4.17606 15.4284V15.7713H3.53358H3.21235L3.05173 16.1141L2.7305 16.457L2.89111 16.6284H2.40926L2.24864 16.1141L2.08803 15.9427L1.76679 16.1141V16.2855V16.457H1.60618L0.963706 16.1141L0.321233 15.9427C0.321233 15.9427 0.160618 15.7713 0.160618 15.4284C0.160618 15.0855 0.160618 14.9141 0 14.9141V14.5713V14.3998V14.2284V13.8855V13.7141L0.160618 13.3713V13.1998L0.321233 12.857V12.5141C0.321233 12.5141 0.321233 12.3427 0.321233 12.1713C0.321233 11.9998 0.481851 11.8284 0.481851 11.657L0.64247 11.1427C0.64247 10.9713 0.64247 10.9713 0.64247 10.7998C0.64247 10.6284 0.803088 10.457 0.803088 10.457V9.94269C0.803088 9.94269 0.803088 9.77126 0.963706 9.59983L1.12432 9.4284L0.963706 9.25698V9.08555C0.963706 9.08555 0.963703 9.08555 1.12432 8.91412C1.12432 8.74269 1.28494 8.74269 1.28494 8.57126C1.28494 8.39983 1.44556 8.39983 1.44556 8.2284C1.44556 8.05697 1.44556 8.05697 1.44556 8.05697V7.88555H1.28494C1.44556 7.19983 1.44556 6.68555 1.60618 6.17126C1.76679 5.65697 1.76679 4.97126 1.76679 4.28555L2.08803 3.59983L2.24864 3.25698C2.24864 3.08555 2.24864 2.91412 2.24864 2.74269C2.24864 2.57126 2.40926 2.2284 2.56988 2.05698C2.7305 1.88555 2.7305 1.54269 2.89111 1.37126C3.05173 1.19983 3.05173 1.0284 3.21235 0.856976L4.01544 0.685547C4.17606 0.685547 4.49729 1.0284 4.97914 1.71412C5.30038 2.2284 5.62161 3.08555 5.94285 4.11412H6.10347C6.10347 4.6284 6.26408 5.14269 6.4247 5.65698L6.58532 5.99983L6.74593 6.68555L6.90656 7.0284C6.90656 7.19983 6.90655 7.37126 7.06717 7.37126C7.22779 7.71412 7.22779 8.2284 7.38841 8.57126C7.38841 8.91412 7.54903 9.25697 7.70964 9.77126V9.59983C7.87026 9.4284 8.03088 9.25698 8.19149 9.08555C8.35211 8.91412 8.51273 8.74269 8.51273 8.39983L8.83396 7.71412L8.99458 7.54269L9.31582 6.85697C9.63705 6.34269 9.79767 5.8284 9.95829 5.48555C10.1189 5.14269 10.2795 4.79983 10.4401 4.6284C10.6008 4.28555 10.7614 4.11412 10.922 3.77126C11.0826 3.4284 11.2432 3.08555 11.4038 2.57126C11.4038 2.2284 11.5645 2.05697 11.7251 1.88555C11.8857 1.71412 12.2069 1.54269 12.5282 1.54269C12.5282 1.54269 12.5282 1.54269 12.6888 1.54269C12.8494 1.54269 12.8494 1.54269 12.8494 1.37126C12.8494 1.19983 13.01 1.19983 13.01 1.19983H13.1706V1.0284H13.4919H14.1343C14.295 1.19983 14.6162 1.37126 14.7768 1.37126C15.098 1.54269 15.2587 1.71412 15.2587 1.88555L15.098 2.05698L15.2587 2.39983V2.74269V2.91412C15.2587 2.91412 15.2587 3.08555 15.2587 3.25698L15.4193 3.59983C15.4193 3.59983 15.4193 3.94269 15.5799 4.28555C15.7405 4.6284 15.7405 4.79983 15.7405 4.97126L15.5799 6.17126V7.54269V8.2284L15.4193 8.57126C15.4193 8.57126 15.4193 8.74269 15.4193 8.91412V9.08555V9.59983H15.9011V9.94269L15.7405 10.1141V10.2855H15.9011V10.6284V10.7998C15.9011 10.7998 16.0618 10.7998 16.0618 10.9713L15.9011 11.657C15.9011 11.657 15.9011 11.8284 15.9011 11.9998L15.7405 12.1713L16.0618 11.9998V12.1713H15.9011V12.3427H16.0618H16.2224V12.5141L16.0618 13.1998C16.0618 13.1998 15.9011 13.3713 15.9011 13.5427C15.9011 13.7141 15.9011 13.8855 15.9011 13.8855L16.383 14.7427C16.383 14.9141 16.2224 14.9141 16.2224 15.0855L16.0618 15.257H16.383V15.4284L16.2224 15.7713C16.2224 15.7713 16.2224 15.7713 16.383 15.7713H16.5436V15.9427L16.2224 16.1141L16.383 18.3427L16.2224 18.5141V18.6855H16.0618C15.9011 18.6855 15.9011 18.857 15.7405 18.857C15.5799 18.857 15.5799 19.0284 15.4193 19.0284C15.2587 19.0284 15.2587 19.1998 15.2587 19.1998H15.098H13.8131C13.8131 19.1998 13.6525 19.3713 13.6525 19.1998C13.6525 19.0284 13.6525 19.1998 13.6525 19.3713V19.1998L13.1706 19.0284L12.6888 18.3427L12.3675 16.7998L12.6888 16.1141C12.6888 15.7713 12.5282 15.4284 12.5282 14.9141C12.5282 14.3998 12.5282 14.057 12.5282 13.5427V11.9998V11.4855V10.9713H12.3675C12.3675 10.6284 12.3675 10.2855 12.3675 9.94269C12.3675 9.59983 12.3675 9.25697 12.3675 8.91412C12.3675 8.57126 12.3675 8.39983 12.3675 8.2284C12.3675 8.05697 12.3676 7.71412 12.2069 7.54269L11.2432 9.4284C11.0826 9.77126 10.922 10.1141 10.7614 10.2855C10.6008 10.457 10.4401 10.6284 10.2795 11.1427C10.1189 11.3141 10.1189 11.657 9.95829 11.8284C9.79767 11.9998 9.63705 12.3427 9.47643 12.5141L8.99458 13.3713C8.83396 13.3713 8.67335 13.5427 8.67335 13.7141C8.51273 13.7141 8.35211 13.8855 8.35211 13.8855L8.19149 14.057C8.19149 14.057 8.03088 14.057 8.19149 14.057C8.03088 14.057 7.87026 14.057 7.54902 13.8855C7.06717 13.7141 6.90655 13.5427 6.74593 13.3713ZM2.40926 7.37126C2.40926 7.54269 2.24864 7.71412 2.24864 7.88555C2.24864 8.05697 2.24864 8.2284 2.24864 8.39983H2.56988V7.19983L2.40926 7.37126ZM3.85482 11.9998C3.6942 12.1713 3.6942 12.3427 3.6942 12.3427C3.6942 12.5141 3.6942 12.6855 3.6942 12.6855C3.85482 12.5141 4.01544 12.3427 4.01544 12.1713V11.9998H3.85482ZM15.9011 8.74269C16.0618 8.74269 16.0618 8.74269 16.0618 8.91412C16.0618 9.08555 16.0618 9.08555 15.9011 9.08555C15.9011 9.08555 15.9011 8.91412 15.9011 8.74269ZM3.6942 11.657H3.85482H3.6942ZM16.0618 9.25698C16.0618 9.4284 16.0618 9.4284 16.0618 9.25698C15.9011 9.4284 15.9011 9.4284 16.0618 9.25698C15.9011 9.25698 15.9011 9.25698 16.0618 9.25698C15.9011 9.25698 16.0618 9.25698 16.0618 9.25698Z" fill="#EEFFFC"/>
<path d="M18.3091 13.3716C18.3091 13.3716 18.4697 13.3716 18.3091 13.3716C18.3091 13.2002 18.4697 13.2002 18.4697 13.0287L18.6303 12.8573C18.6303 12.5144 18.7909 12.0002 18.9515 11.4859C19.1121 10.9716 19.4334 10.6287 19.7546 10.4573L20.0758 10.2859C20.0758 10.2859 20.0758 10.2859 20.0758 10.1144C20.0758 9.94301 20.0758 9.94301 20.0758 9.94301L20.2365 9.77158C20.3971 9.42872 20.5577 9.2573 20.8789 8.91444C21.0395 8.57158 21.3608 8.40015 21.5214 8.0573C21.682 7.88587 22.0033 7.71444 22.1639 7.54301C22.3245 7.37158 22.4851 7.37158 22.6457 7.37158H22.8063C22.8063 7.37158 22.967 7.37158 23.1276 7.54301L23.4488 8.0573C23.6094 8.0573 23.6094 8.22873 23.77 8.40015L23.9307 8.74301V9.42872L24.0913 9.60015L24.2519 9.77158C24.2519 9.77158 24.2519 9.77158 24.4125 9.77158L24.8944 10.1144C24.8944 10.2859 25.055 10.2859 25.055 10.4573C25.055 10.6287 25.2156 10.8002 25.3762 10.9716L25.8581 11.6573C25.8581 11.6573 26.0187 11.8287 26.0187 12.0002C26.0187 12.1716 26.1793 12.343 26.1793 12.6859C26.1793 12.8573 26.3399 13.2002 26.3399 13.3716C26.3399 13.543 26.3399 13.7144 26.3399 13.7144V14.0573L26.0187 14.9144V15.2573L25.6975 15.6002L24.7337 15.7716C24.5731 15.7716 24.4125 15.943 24.2519 15.943C24.0913 15.943 23.9307 15.943 23.77 16.1144L23.4488 16.2859C23.2882 16.4573 23.1276 16.4573 23.1276 16.4573H22.6457C22.4851 16.4573 22.3245 16.6287 22.0033 16.6287C21.8426 16.6287 21.682 16.6287 21.682 16.6287L20.8789 16.4573L20.0758 16.1144C19.7546 15.943 19.4334 15.943 19.2728 15.7716C19.1121 15.7716 18.9515 15.4287 18.6303 15.0859C18.6303 14.9144 18.4697 14.9144 18.4697 14.743C18.4697 14.5716 18.3091 14.5716 18.3091 14.4002L18.1484 13.7144L18.3091 13.3716ZM21.2002 14.743H21.3608C21.5214 14.743 21.8426 14.5716 22.0033 14.5716C22.3245 14.5716 22.4851 14.4002 22.6457 14.4002L22.967 14.0573L23.2882 13.7144L23.4488 13.3716L22.967 11.6573L22.3245 11.4859H22.1639C22.1639 11.4859 22.0033 11.6573 22.0033 11.8287C21.8426 12.0002 21.8426 12.1716 21.682 12.343C21.5214 12.5144 21.5214 12.8573 21.3608 13.0287C21.2002 13.2002 21.2002 13.543 21.2002 13.7144V14.743ZM19.9152 11.3144C19.7546 11.4859 19.594 11.6573 19.4334 12.0002C19.2728 12.343 19.1121 12.6859 19.1121 12.8573C19.1121 13.0287 19.1121 13.0287 19.1121 13.0287V12.8573L19.7546 11.8287C19.9152 11.6573 19.9152 11.4859 19.9152 11.4859V11.3144Z" fill="#EEFFFC"/>
<path d="M27.4653 13.3716C27.4653 13.2002 27.6259 13.2002 27.6259 13.0287L27.7865 12.8573C27.7865 12.5144 27.9472 12.0002 28.1078 11.4859C28.2684 10.9716 28.5896 10.6287 28.9109 10.4573L29.2321 10.2859C29.2321 10.2859 29.2321 10.2859 29.2321 10.1144C29.2321 9.94301 29.2321 9.94301 29.2321 9.94301L29.3927 9.77158C29.5533 9.42872 29.714 9.2573 30.0352 8.91444C30.1958 8.57158 30.517 8.40015 30.6777 8.0573C30.8383 7.88587 31.1595 7.71444 31.3201 7.54301C31.4807 7.37158 31.6414 7.37158 31.802 7.37158H31.9626C31.9626 7.37158 32.1232 7.37158 32.2838 7.54301L32.6051 8.0573C32.7657 8.0573 32.7657 8.22873 32.9263 8.40015L33.0869 8.74301V9.42872L33.2475 9.60015L33.4082 9.77158C33.4082 9.77158 33.4082 9.77158 33.5688 9.77158L34.0506 10.1144C34.0506 10.2859 34.2112 10.2859 34.2112 10.4573C34.2112 10.6287 34.3719 10.8002 34.5325 10.9716L35.0143 11.6573C35.0143 11.6573 35.175 11.8287 35.175 12.0002C35.175 12.1716 35.3356 12.343 35.3356 12.6859C35.3356 12.8573 35.4962 13.2002 35.4962 13.3716C35.4962 13.543 35.4962 13.7144 35.4962 13.7144V14.0573L35.175 14.9144V15.2573L34.8537 15.6002L33.89 15.7716C33.7294 15.7716 33.5688 15.943 33.4082 15.943C33.2475 15.943 33.0869 15.943 32.9263 16.1144L32.6051 16.2859C32.4445 16.4573 32.2838 16.4573 32.2838 16.4573H31.802C31.6414 16.4573 31.4807 16.6287 31.1595 16.6287C30.9989 16.6287 30.8383 16.6287 30.8383 16.6287L30.0352 16.4573L29.2321 16.1144C28.7502 15.943 28.5896 15.7716 28.429 15.7716C28.2684 15.7716 28.1078 15.4287 27.7865 15.0859C27.7865 14.9144 27.6259 14.9144 27.6259 14.743C27.6259 14.5716 27.4653 14.5716 27.4653 14.4002L27.3047 13.7144L27.4653 13.3716ZM30.3564 14.743H30.517C30.6777 14.743 30.9989 14.5716 31.1595 14.5716C31.4807 14.5716 31.6414 14.4002 31.802 14.4002L32.1232 14.0573L32.4445 13.7144L32.6051 13.3716L32.1232 11.6573L31.4807 11.3144H31.3201C31.3201 11.3144 31.1595 11.4859 31.1595 11.6573C30.9989 11.8287 30.9989 12.0002 30.8383 12.1716C30.6777 12.343 30.6777 12.6859 30.517 12.8573C30.3564 13.0287 30.3564 13.3716 30.3564 13.543V14.743ZM29.0715 11.3144C28.9109 11.4859 28.7503 11.6573 28.5896 12.0002C28.429 12.343 28.2684 12.6859 28.2684 12.8573C28.2684 13.0287 28.2684 13.0287 28.2684 13.0287V12.8573L28.9109 11.8287C29.0715 11.6573 29.0715 11.4859 29.0715 11.4859V11.3144Z" fill="#EEFFFC"/>
<path d="M37.1026 13.0286L37.4239 12V11.8286C37.4239 11.8286 37.4239 11.8286 37.4239 11.6572C37.4239 11.4857 37.4239 11.1429 37.5845 10.9715C37.7451 10.6286 37.7451 10.2857 37.9057 10.1143C38.0663 9.77146 38.227 9.4286 38.3876 9.25717C38.5482 8.91432 38.7088 8.57146 38.8694 8.40003C38.8694 8.2286 38.8694 8.2286 39.03 8.05717C39.1907 7.88574 39.1907 7.88574 39.3513 7.88574C39.5119 7.88574 39.8331 7.88574 39.9937 8.05717C40.1544 8.2286 40.4756 8.2286 40.6362 8.40003C40.7968 8.57146 41.1181 8.74289 41.2787 8.91431C41.4393 9.08574 41.5999 9.25717 41.5999 9.60003V9.94289L44.3304 8.74288H44.8123H44.9729C45.1335 8.74288 45.1335 8.74288 45.2941 8.74288C45.2941 8.74288 45.4547 8.91431 45.6154 9.08574H46.0972C46.2578 9.08574 46.2578 9.25717 46.5791 9.25717C46.7397 9.4286 46.9003 9.4286 46.9003 9.60003V10.2857H46.7397V10.4572V10.6286V10.8C46.7397 10.9715 46.7397 11.1429 46.7397 11.1429C46.7397 11.3143 46.7397 11.6572 46.5791 12C46.4184 12.3429 46.4184 12.3429 46.2578 12.3429H46.4184V12.5143V12.6857C46.4184 12.8572 46.4184 13.0286 46.2578 13.3715C46.2578 13.5429 46.2578 13.7143 46.2578 13.8857L46.0972 14.4C46.0972 14.5715 45.9366 14.7429 45.9366 14.9143C45.9366 15.0857 45.9366 15.2572 45.9366 15.6V15.7715C45.9366 15.7715 45.9366 15.9429 45.776 16.1143C45.776 16.2857 45.6154 16.2857 45.6154 16.4572C45.6154 16.6286 45.6154 16.8 45.6154 16.9715H45.4547L45.2941 17.1429C45.1335 17.1429 45.1335 17.3143 44.9729 17.3143C44.9729 17.3143 44.9729 17.3143 44.8123 17.3143C44.8123 17.3143 44.6517 17.3143 44.3304 17.3143C44.1698 17.3143 43.8486 17.1429 43.6879 16.9715C43.5273 16.8 43.5273 16.6286 43.3667 16.2857C43.3667 15.9429 43.2061 15.7715 43.2061 15.4286C43.2061 15.0857 43.2061 14.9143 43.2061 14.7429C43.2061 14.4 43.2061 14.0572 43.2061 13.8857C43.2061 13.5429 43.2061 13.3715 43.2061 13.2C43.2061 13.0286 43.2061 12.6857 43.2061 12.5143C43.2061 12.1715 43.2061 11.8286 43.3667 11.4857C43.3667 11.3143 43.3667 11.1429 43.3667 10.9715C43.3667 10.8 43.3667 10.6286 43.3667 10.4572L43.2061 10.8C42.7242 10.9715 42.0818 11.3143 41.5999 11.6572C41.1181 12 40.7968 12.5143 40.6362 13.0286V13.3715H40.7968C40.7968 13.5429 40.6362 13.5429 40.6362 13.7143C40.6362 13.7143 40.6362 13.8857 40.6362 14.0572L40.9574 13.8857C40.9574 14.2286 40.7968 14.5715 40.6362 14.7429C40.4756 14.9143 40.315 15.0857 40.315 15.2572L40.6362 16.2857V17.3143H40.315C40.315 17.3143 40.1544 17.3143 40.1544 17.4857L39.9937 17.6572L38.227 17.4857L37.1026 16.8L37.4239 16.2857H37.2633H37.1026C37.1026 16.1143 37.1026 16.1143 37.1026 15.9429V16.1143L37.7451 15.4286C37.7451 15.2572 37.7451 15.2572 37.5845 15.2572L37.4239 15.4286C37.4239 15.4286 37.2633 15.4286 37.1026 15.4286C37.1026 15.2572 37.1026 14.9143 37.2633 14.7429C37.4239 14.5715 37.4239 14.4 37.4239 14.2286C37.4239 14.2286 37.2633 14.2286 37.2633 14.0572H37.1026C37.1026 14.0572 37.2633 13.8857 37.2633 13.7143C37.4239 13.5429 37.4239 13.3715 37.4239 13.3715L37.1026 13.0286ZM37.5845 15.0857C37.7451 15.0857 37.7451 15.0857 37.5845 15.0857C37.7451 14.7429 37.7451 14.5715 37.9057 14.2286C37.9057 14.2286 37.7451 14.4 37.7451 14.5715C37.5845 14.7429 37.5845 14.9143 37.5845 15.0857ZM37.1026 14.0572C36.942 14.0572 37.1026 14.2286 37.1026 14.2286V14.0572ZM37.2633 14.9143V14.7429C37.2633 14.7429 37.2633 14.7429 37.2633 14.9143ZM37.4239 13.8857V13.7143V13.8857Z" fill="#EEFFFC"/>
<path d="M67.459 23.6571C67.459 23.6571 67.459 23.4857 67.2984 23.4857C67.2984 23.4857 67.1378 23.3143 67.1378 23.1429V22.9714L67.459 23.3143L67.6196 23.1429C67.6196 23.1429 67.6196 23.1429 67.6196 22.9714C67.6196 22.9714 67.6196 22.8 67.6196 22.6286C67.6196 22.4571 67.7802 22.4571 67.7802 22.4571H67.459C67.459 22.4571 67.459 22.4571 67.459 22.2857C67.459 22.1143 67.459 22.1143 67.2984 21.9429H67.459V21.7714C67.459 21.6 67.459 21.4286 67.2984 21.4286L67.1378 21.6C67.1378 21.7714 67.1378 21.7714 67.1378 21.7714H66.9772V21.9429C66.9772 22.1143 66.9772 22.1143 66.9772 22.1143H66.8165C66.8165 22.1143 66.8165 21.9429 66.8165 21.7714C66.8165 21.6 66.8165 21.6 66.8165 21.4286C66.8165 21.4286 66.8165 21.2571 66.8165 21.0857C66.8165 20.9143 66.9772 20.7429 67.1378 20.5714C67.1378 20.7429 67.1378 20.7429 67.1378 20.9143V21.0857V20.9143C67.1378 20.7429 67.1378 20.5714 66.9772 20.4C66.9772 20.2286 66.8165 20.2286 66.8165 20.0571L66.6559 19.8857C66.6559 19.8857 66.4953 19.7143 66.4953 19.3714C66.4953 19.2 66.4953 19.0286 66.4953 18.8571C66.4953 18.8571 66.4953 19.0286 66.3347 19.0286C66.1741 19.0286 66.1741 19.0286 66.1741 19.0286C66.1741 18.8571 66.0134 18.8571 66.0134 18.5143C66.0134 18.3429 65.8528 18.1714 65.6922 18C65.6922 18.3429 65.6922 18.5143 65.6922 18.5143C65.6922 18.5143 65.6922 18.5143 65.6922 18.6857C65.6922 18.6857 65.6922 18.6857 65.6922 18.8571C65.5316 18.8571 65.5316 18.8571 65.5316 18.6857L65.6922 17.6571C65.6922 17.6571 65.6922 17.4857 65.5316 17.3143C65.371 17.4857 65.371 17.4857 65.371 17.4857L65.2104 17.6571C65.2104 17.6571 65.0497 17.4857 64.8891 17.1429C64.7285 16.8 64.7285 16.6286 64.7285 16.6286V16.2857C64.7285 16.1143 64.5679 15.9429 64.4073 15.7714C64.2466 15.6 64.2466 15.4286 64.2466 15.0857V14.9143H64.086C64.086 14.7429 64.086 14.7429 64.086 14.5714C64.086 14.4 64.086 14.4 64.086 14.2286L63.9254 13.8857L63.6042 14.0571L62.4799 11.1429C62.4799 10.9714 62.3192 10.9714 62.3192 10.8C62.3192 10.8 62.3192 10.8 62.3192 10.6286C62.3192 10.4571 62.3192 10.4571 62.1586 10.2857H61.6768H61.5162H61.0343C60.8737 10.2857 60.5524 10.1143 60.3918 10.1143C60.2312 10.1143 60.2312 9.94286 60.0706 9.94286C59.91 10.6286 59.91 10.9714 59.91 10.9714V11.3143V11.4857V11.6571V11.8286L59.7494 12.1714V12.5143C59.7494 12.8571 59.7494 13.0286 59.7494 13.2C59.7494 13.3714 59.7493 13.5429 59.5887 13.5429V13.7143V13.8857V14.0571C59.5887 14.0571 59.5887 14.2286 59.5887 14.4L59.4281 14.7429V15.9429V15.7714C59.4281 15.7714 59.4281 15.9429 59.4281 16.1143C59.4281 16.2857 59.4281 16.4571 59.4281 16.4571V16.6286V17.1429V17.3143V17.6571V17.8286L59.2675 18L58.4644 18.3429L57.5007 18.5143L56.6976 18.3429C56.3764 18.1714 56.0551 18 56.0551 17.8286C55.8945 17.6571 55.8945 17.3143 55.8945 16.9714C55.8945 16.9714 55.8945 16.8 55.8945 16.6286C55.8945 16.4571 55.8945 16.2857 55.8945 15.9429C55.8945 15.7714 55.8945 15.6 55.8945 15.2571C55.8945 15.0857 55.8945 14.9143 56.0551 14.9143V16.6286L56.2158 16.8C56.2158 16.4571 56.2158 15.9429 56.2158 15.2571C56.2158 14.5714 56.3764 13.7143 56.537 12.8571C56.537 12.8571 56.3764 12.6857 56.3764 12.3429C56.3764 12 56.3764 11.8286 56.537 11.8286C56.537 12 56.537 12.1714 56.537 12.1714L57.0189 10.4571H56.8582C56.8582 10.2857 56.8582 10.1143 57.0189 10.1143L57.1795 9.94286V9.6C57.3401 8.22857 57.6613 6.85714 57.9826 5.31429C58.3038 3.94286 58.7857 2.57143 59.1069 1.37143C59.1069 1.2 59.2675 1.02857 59.2675 0.685714C59.4281 0.342856 59.4281 0.171428 59.4281 0.171428L59.5887 0H60.0706C60.2312 0 60.3918 0 60.7131 0C60.8737 0 61.1949 0 61.3555 0H61.5162C61.6768 0.171429 61.8374 0.342857 61.8374 0.514286C61.8374 0.685715 61.998 0.857142 61.998 1.02857C61.998 1.02857 61.998 1.02857 61.998 1.2C61.998 1.37143 61.998 1.37143 61.998 1.54286C61.998 1.71429 61.998 1.71428 61.998 1.88571C61.998 2.05714 61.998 2.05714 61.998 2.05714L63.2829 1.2C63.2829 1.2 63.4436 1.02857 63.7648 1.02857C64.086 0.857142 64.4073 0.857142 64.7285 0.685714C65.0497 0.685714 65.371 0.514286 65.6922 0.514286C66.0134 0.514286 66.3347 0.514286 66.3347 0.514286L66.4953 0.685714H66.6559V0.514286H66.8165C66.8165 0.514286 66.9772 0.514285 67.1378 0.685714C67.2984 0.685714 67.2984 0.857143 67.459 0.857143C67.6196 0.857143 67.9409 1.02857 68.2621 1.02857C68.5833 1.02857 68.7439 1.2 68.9046 1.2C69.0652 1.37143 69.2258 1.54286 69.3864 1.71429C69.547 1.88571 69.547 2.22857 69.547 2.74286L69.7077 2.57143V2.74286L69.3864 3.77143V3.94286L69.2258 4.28571C69.2258 4.28571 69.2258 4.45714 69.0652 4.62857C69.0652 4.8 69.0652 4.8 69.0652 4.97143V5.14286C69.0652 5.14286 69.0652 5.31429 68.9046 5.65714V6V6.17143C68.9046 6.17143 68.9046 6.34286 68.9046 6.51429V6.68572C68.9046 6.85714 68.9046 7.02857 68.7439 7.02857V7.2C68.7439 7.37143 68.5833 7.71429 68.4227 8.05714C68.2621 8.4 68.1015 8.57143 68.1015 8.74286V8.91429L67.9409 9.08572C67.9409 9.08572 67.7802 9.25714 67.6196 9.25714C67.459 9.25714 67.2984 9.42857 67.2984 9.42857L66.9772 9.6H66.8165C66.6559 9.6 66.4953 9.6 66.4953 9.77143C66.3347 9.77143 66.1741 9.94286 66.0134 9.94286C65.8528 9.94286 65.8528 9.94286 65.8528 9.94286C65.8528 10.2857 66.0135 10.4571 66.1741 10.6286C66.3347 10.8 66.4953 10.9714 66.4953 11.1429C66.4953 11.3143 66.4953 11.6571 66.6559 11.8286C66.8165 12.1714 66.8165 12.3429 66.9772 12.6857C67.1378 13.0286 67.2984 13.2 67.2984 13.3714C67.459 13.5429 67.459 13.7143 67.459 13.7143V14.0571L67.2984 13.8857L68.1015 15.4286L68.2621 16.1143L68.5833 16.2857V16.4571L68.4227 16.6286C68.4227 16.6286 68.5833 16.8 68.7439 16.9714C68.9046 17.1429 68.9046 17.3143 69.0652 17.3143L69.2258 17.4857L69.3864 17.8286C69.3864 17.8286 69.3864 18 69.3864 18.1714V18.5143L69.547 19.0286C69.547 19.2 69.7077 19.3714 69.7077 19.3714L70.0289 20.2286L69.8683 20.4L69.7077 20.5714L69.8683 20.9143H70.0289L70.1895 21.0857L70.3501 21.4286L70.5107 21.2571L70.832 22.4571V22.6286C70.832 22.8 70.832 22.8 70.832 22.9714C70.832 22.9714 70.832 23.1429 70.6714 23.1429C70.6714 23.1429 70.5107 23.3143 70.5107 23.4857C70.3501 23.4857 70.1895 23.3143 70.1895 23.3143H70.0289C69.8683 23.3143 69.8683 23.3143 69.7077 23.4857C69.547 23.6571 69.547 23.6571 69.547 23.8286C69.547 24 69.547 24 69.547 24H69.2258V23.8286H69.0652V24L68.9046 23.6571C68.9046 23.6571 68.744 23.8286 68.5833 23.8286C68.4227 23.8286 68.4227 24 68.2621 24V23.8286C68.1015 23.8286 68.1015 23.8286 67.9409 24C67.7802 24 67.6196 23.8286 67.459 23.6571ZM60.8737 7.37143C60.8737 7.37143 60.7131 7.54286 60.7131 7.88571C60.7131 8.05714 60.5524 8.4 60.3918 8.74286C60.7131 8.57143 61.1949 8.57143 61.5162 8.57143C61.8374 8.57143 62.3192 8.57143 62.6405 8.4C62.8011 8.4 62.9617 8.22857 63.2829 8.22857C63.6042 8.05714 63.7648 8.05714 63.9254 7.88571C64.086 7.71429 64.2466 7.71428 64.4073 7.71428C64.5679 7.71428 64.7285 7.71429 65.0497 7.54286C65.2104 7.54286 65.371 7.37143 65.5316 7.2C65.6922 7.02857 65.6922 6.68571 65.6922 6.34286C65.6922 6 65.8528 5.65714 65.8528 5.48571C65.8528 5.31429 66.0134 5.14286 66.0134 4.8C66.0134 4.62857 66.1741 4.45714 66.1741 4.11429C66.1741 3.94286 66.1741 3.6 66.1741 3.25714C66.0135 3.25714 65.8528 3.25714 65.6922 3.42857C65.5316 3.42857 65.371 3.6 65.2104 3.6C65.0497 3.6 65.0497 3.6 64.8891 3.6C64.7285 3.6 64.7285 3.6 64.5679 3.6H64.4073C64.2466 3.77143 64.086 3.77143 63.7648 3.94286C63.6042 3.94286 63.2829 4.11429 63.1223 4.11429C62.9617 4.11429 62.8011 4.28571 62.4799 4.28571C62.3192 4.28571 62.1586 4.45714 62.1586 4.45714H61.6768H61.3555H61.0343V4.62857V4.8V4.97143V4.8H61.1949C61.1949 5.14286 61.0343 5.48571 60.8737 6C61.0343 6.68571 61.0343 7.02857 60.8737 7.37143ZM67.9409 21.0857C67.9409 21.2571 68.1015 21.2571 68.1015 21.2571C68.1015 21.2571 68.1015 21.2571 68.1015 21.0857C68.1015 20.9143 68.1015 20.7429 68.1015 20.5714C68.1015 20.4 68.1015 20.0571 67.9409 19.8857C67.9409 19.7143 67.7802 19.5429 67.6196 19.2C67.459 19.0286 67.2984 19.0286 67.1378 19.0286V19.2C67.2984 19.3714 67.2984 19.3714 67.2984 19.3714C67.2984 19.3714 67.459 19.3714 67.6196 19.5429L67.459 19.8857C67.459 19.8857 67.459 20.0571 67.6196 20.0571C67.7802 20.0571 67.7802 20.2286 67.7802 20.4C67.7802 20.5714 67.7802 20.7429 67.6196 20.7429C67.6196 20.7429 67.6196 20.7429 67.7802 20.7429L67.9409 21.0857ZM65.6922 19.0286C65.8528 19.2 65.8528 19.2 65.8528 19.3714C65.8528 19.5429 65.8528 19.5429 65.8528 19.5429C65.8528 19.7143 65.8528 19.7143 65.8528 19.8857C65.6922 19.7143 65.6922 19.5429 65.5316 19.3714C65.5316 19.2 65.5316 19.2 65.6922 19.0286C65.5316 19.0286 65.5316 19.0286 65.6922 19.0286ZM56.0551 14.7429C55.8945 14.7429 55.8945 14.5714 55.8945 14.5714C55.8945 14.4 55.8945 14.4 55.8945 14.2286C55.8945 14.0571 55.8945 13.8857 55.8945 13.8857C55.8945 13.7143 55.8945 13.7143 55.8945 13.5429V14.7429H56.0551ZM67.6196 22.1143L67.7802 22.2857L67.6196 22.1143ZM66.3347 19.5429C66.4953 19.5429 66.4953 19.5429 66.4953 19.5429H66.3347ZM68.1015 21.6C68.1015 21.6 68.1015 21.6 67.9409 21.4286L68.1015 21.6Z" fill="#EEFFFC"/>
<path d="M76.4534 16.2859C76.9352 16.4574 77.0959 16.4574 77.0959 16.6288V16.9717C77.0959 17.3145 77.0959 17.4859 77.2565 17.6574C77.2565 17.8288 77.4171 17.8288 77.4171 17.8288C77.4171 17.8288 77.2565 17.8288 77.0959 17.8288C76.9352 17.8288 76.614 17.8288 76.4534 17.8288C76.1322 17.8288 75.9715 17.8288 75.6503 17.8288C75.3291 17.8288 75.1685 17.8288 75.0078 17.8288H74.6866C74.2048 17.8288 73.7229 17.6574 73.4017 17.4859C73.0804 17.3145 72.7592 16.9717 72.5986 16.6288H72.438V16.1145C72.438 15.9431 72.2773 15.7717 72.2773 15.6002C72.2773 15.4288 72.2773 15.2574 72.2773 15.086C72.2773 14.9145 72.438 14.7431 72.438 14.7431C72.5986 14.5717 72.5986 14.5717 72.7592 14.4002C72.9198 14.2288 72.9198 14.2288 72.9198 14.2288C72.9198 14.0574 72.9198 13.8859 73.0804 13.7145C73.241 13.5431 73.4017 13.3717 73.5623 13.0288C73.7229 12.8574 74.0441 12.686 74.2048 12.5145C74.3654 12.3431 74.6866 12.1717 74.8472 12.0002H75.1685C75.1685 12.0002 75.3291 12.0002 75.4897 12.0002C75.6503 12.0002 75.8109 11.8288 75.9715 11.8288L76.4534 11.486C76.614 11.486 76.7746 11.3145 76.7746 11.1431L78.2202 10.4574C78.2202 10.4574 78.2202 10.2859 78.3808 10.2859L78.5414 10.1145L78.2202 8.91452C78.2202 8.91452 78.2202 8.91452 78.0596 8.91452C77.8989 8.91452 77.7383 8.91452 77.4171 8.91452C77.0959 8.91452 76.7746 9.08595 76.614 9.08595C76.2928 9.08595 75.9715 9.25738 75.8109 9.25738C75.6503 9.25738 75.4897 9.25738 75.4897 9.25738C75.4897 9.25738 75.4897 9.25738 75.3291 9.25738C75.1685 9.25738 75.0078 9.25738 74.8472 9.08595C74.6866 8.91452 74.526 8.74309 74.526 8.74309L74.2048 8.57166L74.0441 8.40024V8.22881V8.05738V7.88595C74.0441 7.71452 74.2048 7.71452 74.6866 7.5431C75.0078 7.37167 75.6503 7.37167 76.1322 7.20024C76.7746 7.20024 77.4171 7.02881 78.0596 7.02881C78.702 7.02881 79.3445 7.02881 79.987 7.02881H80.1476C80.4688 7.02881 80.7901 7.02881 80.9507 7.20024C81.1113 7.37167 81.2719 7.37167 81.4325 7.5431C81.5932 7.71452 81.7538 7.88595 81.7538 8.05738C81.9144 8.22881 81.9144 8.40024 82.075 8.57166V9.25738C82.075 9.60024 82.075 9.77167 82.075 9.94309C82.075 10.1145 82.075 10.286 82.075 10.4574C82.075 10.6288 82.075 10.8002 82.075 10.9717C82.075 11.1431 82.075 11.3145 81.9144 11.6574C81.9144 11.8288 81.9144 11.8288 81.9144 12.0002C81.9144 12.0002 81.9144 12.1717 81.9144 12.3431V12.686L81.5932 13.0288L81.7538 13.3717L81.4325 13.7145V13.8859V14.0574V14.7431H81.7538V14.9145L81.5932 15.086V15.2574V15.6002C81.4325 15.7717 81.4325 16.1145 81.2719 16.6288C81.2719 16.9717 81.1113 17.3145 81.1113 17.4859C81.1113 17.4859 80.9507 17.4859 80.7901 17.4859C80.6294 17.4859 80.4688 17.4859 80.3082 17.4859C80.1476 17.4859 79.987 17.4859 79.8264 17.4859C79.6657 17.4859 79.6657 17.4859 79.6657 17.4859C79.5051 17.4859 79.3445 17.4859 79.0233 17.3145C78.8627 17.1431 78.702 16.9717 78.702 16.8002C78.702 16.6288 78.5414 16.4574 78.5414 16.1145C78.5414 15.9431 78.5414 15.7717 78.5414 15.4288C78.5414 15.0859 78.5414 14.7431 78.702 14.4002C78.8627 14.0574 78.8627 13.7145 78.8627 13.2002C78.8627 13.0288 78.8627 12.8574 78.8627 12.5145C78.8627 12.3431 78.8627 12.1717 78.5414 12.1717L78.3808 12.3431L78.2202 12.5145H78.0596C78.0596 12.5145 77.899 12.5145 77.7383 12.686C77.5777 12.686 77.4171 12.8574 77.2565 13.0288C77.0959 13.2002 76.9353 13.2002 76.7746 13.3717C76.614 13.5431 76.614 13.5431 76.4534 13.5431C76.1322 13.7145 75.9715 13.886 75.6503 14.0574C75.4897 14.2288 75.1685 14.4002 75.0078 14.5717V15.086V15.2574V15.4288L75.1685 15.2574L75.3291 15.4288C75.4897 15.4288 75.6503 15.4288 75.8109 15.4288C75.9715 15.4288 76.1322 15.4288 76.1322 15.4288C76.2928 15.4288 76.4534 15.4288 76.614 15.6002C76.1322 16.1145 76.2928 16.2859 76.4534 16.2859Z" fill="#EEFFFC"/>
<path d="M83.3598 15.6002C83.3598 15.6002 83.3598 15.4288 83.3598 15.2573C83.3598 15.0859 83.3598 14.9145 83.3598 14.7431C83.3598 14.5716 83.3598 14.4002 83.3598 14.2288C83.3598 14.0573 83.3598 14.0573 83.3598 13.8859L83.5204 13.5431C83.5204 13.5431 83.5204 13.3716 83.6811 13.3716C83.6811 13.2002 83.8417 13.2002 83.8417 13.0288L84.0023 13.2002V12.5145L84.1629 12.1716C84.1629 12.1716 84.1629 12.1716 84.1629 12.0002V11.8288C84.1629 11.6573 84.1629 11.6573 84.1629 11.6573C84.0023 11.6573 84.0023 11.6573 84.0023 11.6573H83.8417V11.4859V11.1431C83.8417 10.8002 84.0023 10.4573 84.0023 10.1145C84.0023 9.77163 84.0023 9.42877 84.0023 9.08591L84.4841 5.48591C84.4841 5.48591 84.4841 5.31448 84.4841 5.14305C84.4841 4.97162 84.4842 4.80019 84.6448 4.45734L84.8054 3.60019L84.966 3.08591C84.966 3.08591 84.966 2.91448 85.1266 2.57162C85.2872 2.40019 85.2872 2.22877 85.2872 2.05734V1.88591V2.05734C85.2872 1.71448 85.4479 1.54305 85.7691 1.37162C86.0903 1.37162 86.4116 1.2002 86.7328 1.2002L86.8934 1.37162C87.054 1.54305 87.054 1.54305 87.2147 1.54305C87.2147 1.54305 87.3753 1.54305 87.6965 1.71448L88.0177 2.05734L88.1784 2.4002V2.57162V2.74305V2.91448V3.25734C88.1784 3.6002 88.0177 3.94305 87.8571 4.11448C87.6965 4.28591 87.5359 4.62877 87.5359 4.97163V5.14305L87.3753 5.48591C87.3753 5.65734 87.3753 5.82877 87.3753 5.82877V6.17162V6.34305C87.3753 6.34305 87.3753 6.51448 87.3753 6.85734C87.3753 7.20019 87.3753 7.37162 87.3753 7.37162V7.54305V7.71448V8.91448V9.08591H87.5359C87.5359 9.08591 87.5359 9.25734 87.5359 9.42877C87.5359 9.60019 87.5359 9.77163 87.3753 10.1145C87.5359 9.94305 87.5359 9.94305 87.8571 9.77162C88.0177 9.60019 88.339 9.60019 88.4996 9.42877C88.8208 9.25734 88.9814 9.25734 89.3027 9.08591C89.6239 9.08591 89.7845 8.91448 90.1058 8.91448C90.1058 8.91448 90.2664 8.91448 90.427 8.91448C90.5876 8.91448 90.7482 8.91448 90.7482 8.74305H91.2301H91.3907C91.5513 8.74305 91.5513 8.74305 91.7119 8.74305L92.3544 8.91448L93.3181 9.94305V10.2859L93.4787 10.9716V11.1431V11.3145V11.4859V11.6573V11.8288C93.4787 12.0002 93.4787 12.1716 93.4787 12.1716C93.4787 12.3431 93.4787 12.5145 93.4787 12.5145L93.3181 12.6859V12.8573C93.3181 13.0288 93.3181 13.2002 93.3181 13.3716C93.3181 13.5431 93.3181 13.5431 93.3181 13.5431L93.1575 13.8859V14.2288C93.1575 14.4002 93.1575 14.5716 93.1575 14.9145C93.1575 15.2573 93.1575 15.4288 93.1575 15.4288L92.9969 16.4573C92.9969 16.6288 92.8362 16.8002 92.515 16.8002C92.1938 16.9716 92.0332 16.9716 92.0332 17.1431L90.7482 17.4859C90.5876 17.4859 90.427 17.4859 90.1058 17.4859C89.9451 17.4859 89.6239 17.4859 89.3027 17.4859C88.8208 17.4859 88.339 17.4859 87.8571 17.3145C87.3753 17.3145 87.2147 17.1431 87.2147 16.8002C86.8934 16.8002 86.5722 16.6288 86.5722 16.2859C86.5722 16.2859 86.5722 16.2859 86.5722 16.4573V16.6288C86.5722 16.8002 86.5722 16.9716 86.5722 16.9716C86.5722 17.1431 86.4116 17.1431 86.2509 17.3145C86.2509 17.4859 86.0903 17.4859 86.0903 17.6573C86.0903 17.6573 85.9297 17.6573 85.9297 17.4859C85.9297 17.4859 85.9297 17.4859 85.7691 17.4859C85.6085 17.4859 85.6085 17.4859 85.6085 17.6573C85.2872 17.4859 84.966 17.3145 84.6448 17.3145C84.3235 17.3145 84.1629 17.3145 83.8417 17.3145C83.6811 17.3145 83.5205 17.1431 83.3598 16.9716C83.1992 16.8002 83.1992 16.4573 83.1992 15.9431C83.1992 15.7716 83.1992 15.7716 83.3598 15.6002C83.1992 15.6002 83.3598 15.6002 83.3598 15.6002ZM86.5722 15.7716C87.2146 15.7716 87.6965 15.6002 88.1784 15.4288C88.6602 15.2573 89.1421 15.0859 89.6239 15.0859H89.7845H89.9451L90.1058 14.4002L90.427 11.1431V10.6288C90.2664 10.6288 90.1058 10.8002 89.7845 10.9716C89.4633 10.9716 89.3027 11.1431 88.9814 11.3145C88.6602 11.4859 88.4996 11.4859 88.1784 11.6573C87.8571 11.8288 87.8571 12.0002 87.6965 12.1716V12.3431V12.5145L86.8934 13.7145L86.7328 14.2288V14.0573V14.2288C86.7328 14.4002 86.7328 14.4002 86.7328 14.5716V14.7431V14.9145L86.5722 15.7716ZM84.6448 12.3431L84.4841 12.5145C84.4841 12.6859 84.4842 12.6859 84.3235 13.0288C84.3235 13.2002 84.3235 13.3716 84.3235 13.3716V13.5431V13.7145H84.4841L84.6448 13.3716C84.6448 13.3716 84.6448 13.2002 84.6448 13.0288C84.6448 12.8573 84.6448 12.6859 84.6448 12.6859V12.5145V12.3431ZM83.8417 13.7145L83.6811 13.8859C83.6811 14.0573 83.6811 14.0573 83.6811 14.0573V14.2288L83.8417 14.0573V13.7145ZM83.5204 14.9145V15.4288L83.6811 15.2573V15.0859C83.6811 15.0859 83.6811 15.0859 83.5204 14.9145C83.6811 14.9145 83.6811 14.9145 83.5204 14.9145V14.5716V14.9145ZM84.4841 11.3145C84.4841 11.1431 84.3235 11.1431 84.4841 11.3145C84.3235 11.3145 84.3235 11.3145 84.3235 11.3145C84.3235 11.3145 84.3235 11.4859 84.4841 11.4859V11.3145ZM84.3235 14.5716L84.4841 14.2288L84.3235 14.5716Z" fill="#EEFFFC"/>
<path d="M95.2466 15.6002C95.2466 15.6002 95.2466 15.4288 95.2466 15.2573C95.2466 15.0859 95.2466 14.9145 95.2466 14.7431C95.2466 14.5716 95.2466 14.4002 95.2466 14.2288C95.2466 14.0573 95.2466 14.0573 95.2466 13.8859L95.4072 13.5431C95.4072 13.5431 95.4072 13.3716 95.5678 13.3716C95.5678 13.2002 95.7284 13.2002 95.7284 13.0288L95.889 13.2002V12.5145L96.0496 12.1716C96.0496 12.1716 96.0496 12.1716 96.0496 12.0002V11.8288C96.0496 11.6573 96.0496 11.6573 96.0496 11.6573C95.889 11.6573 95.889 11.6573 95.889 11.6573H95.7284V11.4859V11.1431C95.7284 10.8002 95.889 10.4573 95.889 10.1145C95.889 9.77163 95.889 9.42877 95.889 9.08591L96.3709 5.48591C96.3709 5.48591 96.3709 5.31448 96.3709 5.14305C96.3709 4.97162 96.3709 4.80019 96.5315 4.45734L96.6921 3.60019L96.8527 3.08591C96.8527 3.08591 96.8527 2.91448 97.0133 2.57162C97.174 2.40019 97.174 2.22877 97.174 2.05734V1.88591V2.05734C97.174 1.71448 97.3346 1.54305 97.6558 1.37162C97.9771 1.37162 98.2983 1.2002 98.6195 1.2002L98.7801 1.37162C98.9408 1.54305 98.9408 1.54305 99.1014 1.54305C99.1014 1.54305 99.262 1.54305 99.5832 1.71448L99.9045 2.05734L100.065 2.4002V2.57162V2.74305V2.91448V3.25734C100.065 3.6002 99.9045 3.94305 99.7438 4.11448C99.5832 4.28591 99.4226 4.62877 99.4226 4.97163V5.14305L99.262 5.48591C99.262 5.65734 99.262 5.82877 99.262 5.82877V6.17162V6.34305C99.262 6.34305 99.262 6.51448 99.262 6.85734C99.262 7.20019 99.262 7.37162 99.262 7.37162V7.54305V7.71448V8.91448V9.08591H99.4226C99.4226 9.08591 99.4226 9.25734 99.4226 9.42877C99.4226 9.60019 99.4226 9.77163 99.262 10.1145C99.4226 9.94305 99.4226 9.94305 99.7438 9.77162C99.9045 9.60019 100.226 9.60019 100.386 9.42877C100.708 9.25734 100.868 9.25734 101.189 9.08591C101.511 9.08591 101.671 8.91448 101.992 8.91448C101.992 8.91448 102.153 8.91448 102.314 8.91448C102.474 8.91448 102.635 8.91448 102.635 8.74305H103.117H103.277C103.438 8.74305 103.438 8.74305 103.599 8.74305L104.241 8.91448L105.205 9.94305V10.2859L105.365 10.9716V11.1431V11.3145V11.4859V11.6573V11.8288C105.365 12.0002 105.365 12.1716 105.365 12.1716C105.365 12.3431 105.365 12.5145 105.365 12.5145L105.205 12.6859V12.8573C105.205 13.0288 105.205 13.2002 105.205 13.3716C105.205 13.5431 105.205 13.5431 105.205 13.5431L105.044 13.8859V14.2288C105.044 14.4002 105.044 14.5716 105.044 14.9145C105.044 15.2573 105.044 15.4288 105.044 15.4288L104.241 16.8002C104.241 16.9716 104.081 17.1431 103.759 17.1431C103.438 17.1431 103.277 17.3145 103.277 17.4859H102.635C102.474 17.4859 102.314 17.4859 101.992 17.4859C101.832 17.4859 101.511 17.4859 101.189 17.4859C100.708 17.4859 100.226 17.4859 99.7438 17.3145C99.262 17.3145 99.1014 17.1431 99.1014 16.8002C98.7801 16.8002 98.4589 16.6288 98.4589 16.2859C98.4589 16.2859 98.4589 16.2859 98.4589 16.4573V16.6288C98.4589 16.8002 98.4589 16.9716 98.4589 16.9716C98.4589 17.1431 98.2983 17.1431 98.1377 17.3145C98.1377 17.4859 97.977 17.4859 97.977 17.6573C97.977 17.6573 97.8164 17.6573 97.8164 17.4859C97.8164 17.4859 97.8164 17.4859 97.6558 17.4859C97.6558 17.4859 97.4952 17.4859 97.4952 17.6573C97.174 17.4859 96.8527 17.3145 96.5315 17.3145C96.2103 17.3145 96.0496 17.3145 95.7284 17.3145C95.5678 17.3145 95.4072 17.1431 95.2466 16.9716C95.0859 16.8002 95.0859 16.4573 95.0859 15.9431C95.2466 15.7716 95.2466 15.7716 95.2466 15.6002ZM98.4589 15.7716C99.1014 15.7716 99.5832 15.6002 100.065 15.4288C100.547 15.2573 101.029 15.0859 101.511 15.0859H101.671H101.832L101.992 14.4002L102.314 11.1431V10.6288C102.153 10.6288 101.992 10.8002 101.671 10.9716C101.35 10.9716 101.189 11.1431 100.868 11.3145C100.547 11.4859 100.386 11.4859 100.065 11.6573C99.9045 11.8288 99.7438 12.0002 99.5832 12.1716V12.3431V12.5145L98.7801 13.7145L98.6195 14.2288V14.0573V14.2288C98.6195 14.4002 98.6195 14.4002 98.6195 14.5716V14.7431V14.9145L98.4589 15.7716ZM96.5315 12.3431L96.3709 12.5145C96.3709 12.6859 96.3709 12.6859 96.2103 13.0288C96.2103 13.2002 96.2103 13.3716 96.2103 13.3716V13.5431V13.7145H96.3709L96.5315 13.3716C96.5315 13.3716 96.5315 13.2002 96.5315 13.0288C96.5315 12.8573 96.5315 12.6859 96.5315 12.6859V12.5145V12.3431ZM95.7284 13.7145L95.5678 13.8859C95.5678 14.0573 95.5678 14.0573 95.5678 14.0573V14.2288L95.7284 14.0573V13.7145ZM95.5678 14.9145C95.4072 14.9145 95.4072 14.9145 95.5678 14.9145V15.4288L95.7284 15.2573V15.0859C95.5678 15.0859 95.5678 15.0859 95.5678 14.9145V14.5716V14.9145ZM96.3709 11.3145C96.3709 11.1431 96.3709 11.1431 96.3709 11.3145C96.2103 11.3145 96.2103 11.3145 96.2103 11.3145C96.2103 11.3145 96.2103 11.4859 96.3709 11.4859V11.3145ZM96.2103 14.5716L96.3709 14.2288L96.2103 14.5716Z" fill="#EEFFFC"/>
<path d="M107.614 17.4858C107.454 17.3144 107.293 17.3144 107.293 17.1429C107.293 16.9715 107.293 16.8001 107.293 16.6286V16.1144L107.935 9.60007C107.935 9.60007 107.935 9.60007 107.935 9.42864C107.935 9.42864 107.935 9.42864 107.935 9.08579C107.935 8.91436 107.935 8.74293 108.096 8.40007C108.096 8.22864 108.257 7.88578 108.257 7.71435C108.257 7.54293 108.417 7.3715 108.417 7.3715C108.417 7.3715 108.578 7.3715 108.739 7.3715C108.899 7.3715 108.899 7.3715 109.06 7.3715C109.381 7.3715 109.542 7.54293 109.863 7.54293C110.184 7.54293 110.505 7.71436 110.827 7.88578C111.148 8.05721 111.469 8.22864 111.63 8.40007C111.79 8.5715 111.951 8.91436 111.951 9.25721L111.63 10.1144C111.469 10.2858 111.469 10.6286 111.308 10.9715C111.308 11.1429 111.148 11.4858 111.148 11.6572C111.148 11.6572 111.148 11.8286 111.148 12.0001C111.148 12.1715 111.148 12.3429 111.148 12.5144C111.148 12.6858 111.148 12.8572 111.148 13.0286C111.148 13.2001 111.148 13.3715 111.148 13.5429V14.2286C111.148 14.2286 111.148 14.2286 111.148 14.4001V14.5715V14.7429H110.987V15.0858V15.2572H110.827H110.666C110.666 15.2572 110.666 15.4286 110.666 15.7715C110.666 15.9429 110.666 16.1144 110.505 16.2858C110.505 16.2858 110.666 16.1144 110.827 15.9429C110.987 15.7715 110.987 15.6001 111.148 15.6001C111.148 15.9429 110.987 16.2858 110.987 16.6286C110.987 16.9715 110.987 17.3144 110.987 17.4858L111.148 17.8286L110.345 17.4858L110.184 17.6572C110.184 17.6572 110.023 17.6572 109.863 17.6572H109.702L109.22 17.4858H109.06L108.578 17.8286H108.257V17.6572H107.775L107.614 17.4858ZM107.775 4.28578C107.775 3.7715 107.775 3.25721 107.935 2.91436C108.096 2.5715 108.257 2.05721 108.578 1.71436L108.739 1.88578C108.739 1.88578 108.739 1.88578 108.899 1.88578H109.06H110.023C110.184 1.88578 110.345 2.05721 110.345 2.22864C110.505 2.40007 110.505 2.5715 110.666 2.5715H110.827C110.987 2.5715 111.148 2.5715 111.308 2.74293C111.469 2.91435 111.63 2.91436 111.63 3.08578C111.79 3.25721 111.79 3.42864 111.951 3.60007C111.951 3.7715 112.111 3.94293 112.111 4.11436C112.111 4.28579 111.951 4.45721 111.79 4.62864C111.63 4.80007 111.308 4.9715 110.987 5.14293C110.666 5.31435 110.345 5.48578 110.023 5.48578C109.702 5.65721 109.542 5.65721 109.22 5.65721C108.899 5.65721 108.578 5.48578 108.257 5.31436C107.935 4.9715 107.775 4.62864 107.775 4.28578ZM109.863 15.2572C109.863 15.2572 109.863 15.4286 109.863 15.6001C109.863 15.7715 109.863 15.7715 110.023 15.9429V15.4286H110.184V15.2572C110.023 15.0858 110.023 15.0858 109.863 15.2572ZM109.863 17.4858H110.184V17.3144H109.863V17.4858ZM110.345 17.8286L110.505 18.0001C110.505 18.1715 110.505 18.1715 110.345 18.1715C110.184 18.1715 110.184 18.1715 110.184 18.0001C110.184 17.8286 110.184 17.8286 110.345 17.8286ZM110.505 14.4001C110.505 14.5715 110.505 14.5715 110.505 14.5715L110.666 14.4001V14.2286L110.505 14.4001Z" fill="#EEFFFC"/>
<path d="M124.319 8.40024V8.57166V8.40024L123.355 8.74309C123.355 8.74309 123.355 8.74309 123.195 8.74309C123.034 8.74309 123.195 8.74309 123.195 8.74309H123.034C122.873 8.74309 122.552 8.74309 122.231 8.74309C121.91 8.74309 121.589 8.74309 121.428 8.74309C121.107 8.74309 120.946 8.74309 120.625 8.91452C120.464 8.91452 120.304 9.08595 120.304 9.08595H120.143V9.25738C120.143 9.42881 120.143 9.42881 119.982 9.42881C119.982 9.42881 119.822 9.60024 119.822 9.77166C119.822 9.94309 119.822 9.94309 119.982 9.94309C119.822 9.94309 119.822 10.1145 119.822 10.4574C119.822 10.6288 119.822 10.8002 119.982 10.8002L120.143 11.1431C119.982 11.3145 119.822 11.4859 119.822 11.6574C119.822 11.8288 119.822 11.8288 119.822 12.0002C119.822 12.1717 119.822 12.3431 119.822 12.3431V12.5145C119.822 12.5145 119.822 12.5145 119.822 12.686C119.822 12.8574 119.822 13.2002 119.661 13.3717C119.661 13.7145 119.501 13.8859 119.501 13.8859V14.0574H119.661L119.501 14.2288C119.501 14.2288 119.501 14.2288 119.501 14.4002H119.822L119.501 15.6002H119.661C119.822 15.6002 119.982 15.6002 120.304 15.6002C120.464 15.6002 120.625 15.6002 120.946 15.4288C121.107 15.2574 121.267 15.2574 121.428 15.2574H121.589C121.749 15.2574 121.749 15.2574 121.91 15.2574C122.07 15.2574 122.231 15.2574 122.231 15.2574H123.837H123.998C124.158 15.2574 124.158 15.2574 124.319 15.4288C124.48 15.4288 124.48 15.6002 124.64 15.6002H124.801C124.801 15.7717 124.801 15.9431 124.64 16.1145C124.48 16.2859 124.319 16.4574 124.319 16.4574L122.713 16.9717L120.625 17.1431C120.464 17.1431 120.143 17.3145 119.822 17.4859C119.501 17.6574 119.179 17.8288 118.858 17.8288V17.6574L117.734 17.4859C117.412 17.3145 117.252 17.1431 117.091 17.1431C116.931 17.1431 116.931 16.9717 116.77 16.9717H116.609C116.609 16.9717 116.449 16.8002 116.288 16.8002C116.288 16.8002 116.288 16.6288 116.288 16.2859C116.288 16.1145 116.288 15.7717 116.288 15.6002C116.288 15.4288 116.288 15.0859 116.288 14.9145C116.288 14.7431 116.288 14.5717 116.449 14.5717L116.609 16.1145L116.77 16.2859C116.77 15.9431 116.77 15.4288 116.77 14.7431C116.77 14.0574 116.77 13.2002 116.931 12.3431C116.931 12.3431 116.931 12.3431 116.931 12.1717C116.931 12.0002 116.931 11.8288 116.931 11.8288C116.931 11.486 116.931 11.4859 116.931 11.4859L117.091 11.8288L117.412 9.77166H117.252V9.42881V9.08595C117.091 9.08595 116.931 9.08595 116.77 9.08595C116.609 9.08595 116.449 9.08595 116.288 9.25738H115.485H115.164H115.003L114.843 9.08595C114.682 9.08595 114.361 8.91452 114.2 8.57166C114.04 8.22881 113.879 7.88595 113.879 7.54309C113.879 7.37167 114.04 7.20024 114.361 7.20024C114.682 7.02881 115.003 7.02881 115.485 6.85738C115.806 6.85738 116.288 6.68595 116.609 6.68595C117.091 6.68595 117.413 6.51452 117.573 6.51452C117.573 6.34309 117.734 6.00024 117.734 5.65738C117.734 5.31452 117.734 4.97167 117.734 4.62881C117.734 4.28595 117.734 4.11452 117.734 3.77167C117.734 3.60024 117.734 3.60024 117.734 3.60024C117.734 3.60024 117.734 3.42881 117.734 3.25738C117.734 3.08595 117.894 2.91452 117.894 2.74309C117.894 2.57167 118.055 2.40024 118.055 2.22881C118.055 2.05738 118.055 1.88595 118.055 1.88595C118.055 1.88595 118.055 1.88595 118.055 1.71452C118.055 1.71452 118.055 1.5431 118.055 1.37167C118.055 1.20024 118.055 1.20024 118.055 1.02881C118.216 1.02881 118.376 1.02881 118.697 1.20024C119.019 1.37167 119.34 1.37167 119.661 1.54309C119.982 1.71452 120.304 1.88595 120.464 2.22881C120.625 2.40024 120.785 2.74309 120.785 2.91452C120.785 3.08595 120.625 3.60024 120.464 3.94309C120.304 4.28595 120.143 4.80024 120.143 5.14309L119.982 6.00024C120.625 6.00024 121.267 6.00024 121.91 6.00024C122.552 6.00024 123.034 5.82881 123.355 5.82881C123.516 5.82881 123.677 5.82881 123.837 6.00024C123.998 6.00024 123.998 6.17167 123.998 6.51452L124.319 8.40024ZM116.931 14.5717H116.77C116.77 14.5717 116.77 14.4002 116.77 14.0574C116.77 13.7145 116.77 13.5431 116.931 13.5431V14.5717ZM118.216 15.7717L118.055 16.1145V16.4574L118.376 15.6002H118.216V15.7717ZM118.376 15.0859C118.216 15.0859 118.216 15.0859 118.216 15.2574C118.216 15.4288 118.216 15.4288 118.376 15.4288C118.537 15.4288 118.537 15.4288 118.537 15.2574C118.537 15.0859 118.537 15.0859 118.376 15.0859Z" fill="#EEFFFC"/>
</svg>
